G75*
%MOIN*%
%OFA0B0*%
%FSLAX25Y25*%
%IPPOS*%
%LPD*%
%AMOC8*
5,1,8,0,0,1.08239X$1,22.5*
%
%ADD10C,0.00000*%
%ADD11R,0.03150X0.03150*%
%ADD12R,0.07098X0.06299*%
D10*
X0001000Y0001000D02*
X0001000Y0237220D01*
X0315961Y0237220D01*
X0315961Y0001000D01*
X0001000Y0001000D01*
X0006512Y0012811D02*
X0006514Y0012969D01*
X0006520Y0013127D01*
X0006530Y0013285D01*
X0006544Y0013443D01*
X0006562Y0013600D01*
X0006583Y0013757D01*
X0006609Y0013913D01*
X0006639Y0014069D01*
X0006672Y0014224D01*
X0006710Y0014377D01*
X0006751Y0014530D01*
X0006796Y0014682D01*
X0006845Y0014833D01*
X0006898Y0014982D01*
X0006954Y0015130D01*
X0007014Y0015276D01*
X0007078Y0015421D01*
X0007146Y0015564D01*
X0007217Y0015706D01*
X0007291Y0015846D01*
X0007369Y0015983D01*
X0007451Y0016119D01*
X0007535Y0016253D01*
X0007624Y0016384D01*
X0007715Y0016513D01*
X0007810Y0016640D01*
X0007907Y0016765D01*
X0008008Y0016887D01*
X0008112Y0017006D01*
X0008219Y0017123D01*
X0008329Y0017237D01*
X0008442Y0017348D01*
X0008557Y0017457D01*
X0008675Y0017562D01*
X0008796Y0017664D01*
X0008919Y0017764D01*
X0009045Y0017860D01*
X0009173Y0017953D01*
X0009303Y0018043D01*
X0009436Y0018129D01*
X0009571Y0018213D01*
X0009707Y0018292D01*
X0009846Y0018369D01*
X0009987Y0018441D01*
X0010129Y0018511D01*
X0010273Y0018576D01*
X0010419Y0018638D01*
X0010566Y0018696D01*
X0010715Y0018751D01*
X0010865Y0018802D01*
X0011016Y0018849D01*
X0011168Y0018892D01*
X0011321Y0018931D01*
X0011476Y0018967D01*
X0011631Y0018998D01*
X0011787Y0019026D01*
X0011943Y0019050D01*
X0012100Y0019070D01*
X0012258Y0019086D01*
X0012415Y0019098D01*
X0012574Y0019106D01*
X0012732Y0019110D01*
X0012890Y0019110D01*
X0013048Y0019106D01*
X0013207Y0019098D01*
X0013364Y0019086D01*
X0013522Y0019070D01*
X0013679Y0019050D01*
X0013835Y0019026D01*
X0013991Y0018998D01*
X0014146Y0018967D01*
X0014301Y0018931D01*
X0014454Y0018892D01*
X0014606Y0018849D01*
X0014757Y0018802D01*
X0014907Y0018751D01*
X0015056Y0018696D01*
X0015203Y0018638D01*
X0015349Y0018576D01*
X0015493Y0018511D01*
X0015635Y0018441D01*
X0015776Y0018369D01*
X0015915Y0018292D01*
X0016051Y0018213D01*
X0016186Y0018129D01*
X0016319Y0018043D01*
X0016449Y0017953D01*
X0016577Y0017860D01*
X0016703Y0017764D01*
X0016826Y0017664D01*
X0016947Y0017562D01*
X0017065Y0017457D01*
X0017180Y0017348D01*
X0017293Y0017237D01*
X0017403Y0017123D01*
X0017510Y0017006D01*
X0017614Y0016887D01*
X0017715Y0016765D01*
X0017812Y0016640D01*
X0017907Y0016513D01*
X0017998Y0016384D01*
X0018087Y0016253D01*
X0018171Y0016119D01*
X0018253Y0015983D01*
X0018331Y0015846D01*
X0018405Y0015706D01*
X0018476Y0015564D01*
X0018544Y0015421D01*
X0018608Y0015276D01*
X0018668Y0015130D01*
X0018724Y0014982D01*
X0018777Y0014833D01*
X0018826Y0014682D01*
X0018871Y0014530D01*
X0018912Y0014377D01*
X0018950Y0014224D01*
X0018983Y0014069D01*
X0019013Y0013913D01*
X0019039Y0013757D01*
X0019060Y0013600D01*
X0019078Y0013443D01*
X0019092Y0013285D01*
X0019102Y0013127D01*
X0019108Y0012969D01*
X0019110Y0012811D01*
X0019108Y0012653D01*
X0019102Y0012495D01*
X0019092Y0012337D01*
X0019078Y0012179D01*
X0019060Y0012022D01*
X0019039Y0011865D01*
X0019013Y0011709D01*
X0018983Y0011553D01*
X0018950Y0011398D01*
X0018912Y0011245D01*
X0018871Y0011092D01*
X0018826Y0010940D01*
X0018777Y0010789D01*
X0018724Y0010640D01*
X0018668Y0010492D01*
X0018608Y0010346D01*
X0018544Y0010201D01*
X0018476Y0010058D01*
X0018405Y0009916D01*
X0018331Y0009776D01*
X0018253Y0009639D01*
X0018171Y0009503D01*
X0018087Y0009369D01*
X0017998Y0009238D01*
X0017907Y0009109D01*
X0017812Y0008982D01*
X0017715Y0008857D01*
X0017614Y0008735D01*
X0017510Y0008616D01*
X0017403Y0008499D01*
X0017293Y0008385D01*
X0017180Y0008274D01*
X0017065Y0008165D01*
X0016947Y0008060D01*
X0016826Y0007958D01*
X0016703Y0007858D01*
X0016577Y0007762D01*
X0016449Y0007669D01*
X0016319Y0007579D01*
X0016186Y0007493D01*
X0016051Y0007409D01*
X0015915Y0007330D01*
X0015776Y0007253D01*
X0015635Y0007181D01*
X0015493Y0007111D01*
X0015349Y0007046D01*
X0015203Y0006984D01*
X0015056Y0006926D01*
X0014907Y0006871D01*
X0014757Y0006820D01*
X0014606Y0006773D01*
X0014454Y0006730D01*
X0014301Y0006691D01*
X0014146Y0006655D01*
X0013991Y0006624D01*
X0013835Y0006596D01*
X0013679Y0006572D01*
X0013522Y0006552D01*
X0013364Y0006536D01*
X0013207Y0006524D01*
X0013048Y0006516D01*
X0012890Y0006512D01*
X0012732Y0006512D01*
X0012574Y0006516D01*
X0012415Y0006524D01*
X0012258Y0006536D01*
X0012100Y0006552D01*
X0011943Y0006572D01*
X0011787Y0006596D01*
X0011631Y0006624D01*
X0011476Y0006655D01*
X0011321Y0006691D01*
X0011168Y0006730D01*
X0011016Y0006773D01*
X0010865Y0006820D01*
X0010715Y0006871D01*
X0010566Y0006926D01*
X0010419Y0006984D01*
X0010273Y0007046D01*
X0010129Y0007111D01*
X0009987Y0007181D01*
X0009846Y0007253D01*
X0009707Y0007330D01*
X0009571Y0007409D01*
X0009436Y0007493D01*
X0009303Y0007579D01*
X0009173Y0007669D01*
X0009045Y0007762D01*
X0008919Y0007858D01*
X0008796Y0007958D01*
X0008675Y0008060D01*
X0008557Y0008165D01*
X0008442Y0008274D01*
X0008329Y0008385D01*
X0008219Y0008499D01*
X0008112Y0008616D01*
X0008008Y0008735D01*
X0007907Y0008857D01*
X0007810Y0008982D01*
X0007715Y0009109D01*
X0007624Y0009238D01*
X0007535Y0009369D01*
X0007451Y0009503D01*
X0007369Y0009639D01*
X0007291Y0009776D01*
X0007217Y0009916D01*
X0007146Y0010058D01*
X0007078Y0010201D01*
X0007014Y0010346D01*
X0006954Y0010492D01*
X0006898Y0010640D01*
X0006845Y0010789D01*
X0006796Y0010940D01*
X0006751Y0011092D01*
X0006710Y0011245D01*
X0006672Y0011398D01*
X0006639Y0011553D01*
X0006609Y0011709D01*
X0006583Y0011865D01*
X0006562Y0012022D01*
X0006544Y0012179D01*
X0006530Y0012337D01*
X0006520Y0012495D01*
X0006514Y0012653D01*
X0006512Y0012811D01*
X0006512Y0225409D02*
X0006514Y0225567D01*
X0006520Y0225725D01*
X0006530Y0225883D01*
X0006544Y0226041D01*
X0006562Y0226198D01*
X0006583Y0226355D01*
X0006609Y0226511D01*
X0006639Y0226667D01*
X0006672Y0226822D01*
X0006710Y0226975D01*
X0006751Y0227128D01*
X0006796Y0227280D01*
X0006845Y0227431D01*
X0006898Y0227580D01*
X0006954Y0227728D01*
X0007014Y0227874D01*
X0007078Y0228019D01*
X0007146Y0228162D01*
X0007217Y0228304D01*
X0007291Y0228444D01*
X0007369Y0228581D01*
X0007451Y0228717D01*
X0007535Y0228851D01*
X0007624Y0228982D01*
X0007715Y0229111D01*
X0007810Y0229238D01*
X0007907Y0229363D01*
X0008008Y0229485D01*
X0008112Y0229604D01*
X0008219Y0229721D01*
X0008329Y0229835D01*
X0008442Y0229946D01*
X0008557Y0230055D01*
X0008675Y0230160D01*
X0008796Y0230262D01*
X0008919Y0230362D01*
X0009045Y0230458D01*
X0009173Y0230551D01*
X0009303Y0230641D01*
X0009436Y0230727D01*
X0009571Y0230811D01*
X0009707Y0230890D01*
X0009846Y0230967D01*
X0009987Y0231039D01*
X0010129Y0231109D01*
X0010273Y0231174D01*
X0010419Y0231236D01*
X0010566Y0231294D01*
X0010715Y0231349D01*
X0010865Y0231400D01*
X0011016Y0231447D01*
X0011168Y0231490D01*
X0011321Y0231529D01*
X0011476Y0231565D01*
X0011631Y0231596D01*
X0011787Y0231624D01*
X0011943Y0231648D01*
X0012100Y0231668D01*
X0012258Y0231684D01*
X0012415Y0231696D01*
X0012574Y0231704D01*
X0012732Y0231708D01*
X0012890Y0231708D01*
X0013048Y0231704D01*
X0013207Y0231696D01*
X0013364Y0231684D01*
X0013522Y0231668D01*
X0013679Y0231648D01*
X0013835Y0231624D01*
X0013991Y0231596D01*
X0014146Y0231565D01*
X0014301Y0231529D01*
X0014454Y0231490D01*
X0014606Y0231447D01*
X0014757Y0231400D01*
X0014907Y0231349D01*
X0015056Y0231294D01*
X0015203Y0231236D01*
X0015349Y0231174D01*
X0015493Y0231109D01*
X0015635Y0231039D01*
X0015776Y0230967D01*
X0015915Y0230890D01*
X0016051Y0230811D01*
X0016186Y0230727D01*
X0016319Y0230641D01*
X0016449Y0230551D01*
X0016577Y0230458D01*
X0016703Y0230362D01*
X0016826Y0230262D01*
X0016947Y0230160D01*
X0017065Y0230055D01*
X0017180Y0229946D01*
X0017293Y0229835D01*
X0017403Y0229721D01*
X0017510Y0229604D01*
X0017614Y0229485D01*
X0017715Y0229363D01*
X0017812Y0229238D01*
X0017907Y0229111D01*
X0017998Y0228982D01*
X0018087Y0228851D01*
X0018171Y0228717D01*
X0018253Y0228581D01*
X0018331Y0228444D01*
X0018405Y0228304D01*
X0018476Y0228162D01*
X0018544Y0228019D01*
X0018608Y0227874D01*
X0018668Y0227728D01*
X0018724Y0227580D01*
X0018777Y0227431D01*
X0018826Y0227280D01*
X0018871Y0227128D01*
X0018912Y0226975D01*
X0018950Y0226822D01*
X0018983Y0226667D01*
X0019013Y0226511D01*
X0019039Y0226355D01*
X0019060Y0226198D01*
X0019078Y0226041D01*
X0019092Y0225883D01*
X0019102Y0225725D01*
X0019108Y0225567D01*
X0019110Y0225409D01*
X0019108Y0225251D01*
X0019102Y0225093D01*
X0019092Y0224935D01*
X0019078Y0224777D01*
X0019060Y0224620D01*
X0019039Y0224463D01*
X0019013Y0224307D01*
X0018983Y0224151D01*
X0018950Y0223996D01*
X0018912Y0223843D01*
X0018871Y0223690D01*
X0018826Y0223538D01*
X0018777Y0223387D01*
X0018724Y0223238D01*
X0018668Y0223090D01*
X0018608Y0222944D01*
X0018544Y0222799D01*
X0018476Y0222656D01*
X0018405Y0222514D01*
X0018331Y0222374D01*
X0018253Y0222237D01*
X0018171Y0222101D01*
X0018087Y0221967D01*
X0017998Y0221836D01*
X0017907Y0221707D01*
X0017812Y0221580D01*
X0017715Y0221455D01*
X0017614Y0221333D01*
X0017510Y0221214D01*
X0017403Y0221097D01*
X0017293Y0220983D01*
X0017180Y0220872D01*
X0017065Y0220763D01*
X0016947Y0220658D01*
X0016826Y0220556D01*
X0016703Y0220456D01*
X0016577Y0220360D01*
X0016449Y0220267D01*
X0016319Y0220177D01*
X0016186Y0220091D01*
X0016051Y0220007D01*
X0015915Y0219928D01*
X0015776Y0219851D01*
X0015635Y0219779D01*
X0015493Y0219709D01*
X0015349Y0219644D01*
X0015203Y0219582D01*
X0015056Y0219524D01*
X0014907Y0219469D01*
X0014757Y0219418D01*
X0014606Y0219371D01*
X0014454Y0219328D01*
X0014301Y0219289D01*
X0014146Y0219253D01*
X0013991Y0219222D01*
X0013835Y0219194D01*
X0013679Y0219170D01*
X0013522Y0219150D01*
X0013364Y0219134D01*
X0013207Y0219122D01*
X0013048Y0219114D01*
X0012890Y0219110D01*
X0012732Y0219110D01*
X0012574Y0219114D01*
X0012415Y0219122D01*
X0012258Y0219134D01*
X0012100Y0219150D01*
X0011943Y0219170D01*
X0011787Y0219194D01*
X0011631Y0219222D01*
X0011476Y0219253D01*
X0011321Y0219289D01*
X0011168Y0219328D01*
X0011016Y0219371D01*
X0010865Y0219418D01*
X0010715Y0219469D01*
X0010566Y0219524D01*
X0010419Y0219582D01*
X0010273Y0219644D01*
X0010129Y0219709D01*
X0009987Y0219779D01*
X0009846Y0219851D01*
X0009707Y0219928D01*
X0009571Y0220007D01*
X0009436Y0220091D01*
X0009303Y0220177D01*
X0009173Y0220267D01*
X0009045Y0220360D01*
X0008919Y0220456D01*
X0008796Y0220556D01*
X0008675Y0220658D01*
X0008557Y0220763D01*
X0008442Y0220872D01*
X0008329Y0220983D01*
X0008219Y0221097D01*
X0008112Y0221214D01*
X0008008Y0221333D01*
X0007907Y0221455D01*
X0007810Y0221580D01*
X0007715Y0221707D01*
X0007624Y0221836D01*
X0007535Y0221967D01*
X0007451Y0222101D01*
X0007369Y0222237D01*
X0007291Y0222374D01*
X0007217Y0222514D01*
X0007146Y0222656D01*
X0007078Y0222799D01*
X0007014Y0222944D01*
X0006954Y0223090D01*
X0006898Y0223238D01*
X0006845Y0223387D01*
X0006796Y0223538D01*
X0006751Y0223690D01*
X0006710Y0223843D01*
X0006672Y0223996D01*
X0006639Y0224151D01*
X0006609Y0224307D01*
X0006583Y0224463D01*
X0006562Y0224620D01*
X0006544Y0224777D01*
X0006530Y0224935D01*
X0006520Y0225093D01*
X0006514Y0225251D01*
X0006512Y0225409D01*
X0297851Y0225409D02*
X0297853Y0225567D01*
X0297859Y0225725D01*
X0297869Y0225883D01*
X0297883Y0226041D01*
X0297901Y0226198D01*
X0297922Y0226355D01*
X0297948Y0226511D01*
X0297978Y0226667D01*
X0298011Y0226822D01*
X0298049Y0226975D01*
X0298090Y0227128D01*
X0298135Y0227280D01*
X0298184Y0227431D01*
X0298237Y0227580D01*
X0298293Y0227728D01*
X0298353Y0227874D01*
X0298417Y0228019D01*
X0298485Y0228162D01*
X0298556Y0228304D01*
X0298630Y0228444D01*
X0298708Y0228581D01*
X0298790Y0228717D01*
X0298874Y0228851D01*
X0298963Y0228982D01*
X0299054Y0229111D01*
X0299149Y0229238D01*
X0299246Y0229363D01*
X0299347Y0229485D01*
X0299451Y0229604D01*
X0299558Y0229721D01*
X0299668Y0229835D01*
X0299781Y0229946D01*
X0299896Y0230055D01*
X0300014Y0230160D01*
X0300135Y0230262D01*
X0300258Y0230362D01*
X0300384Y0230458D01*
X0300512Y0230551D01*
X0300642Y0230641D01*
X0300775Y0230727D01*
X0300910Y0230811D01*
X0301046Y0230890D01*
X0301185Y0230967D01*
X0301326Y0231039D01*
X0301468Y0231109D01*
X0301612Y0231174D01*
X0301758Y0231236D01*
X0301905Y0231294D01*
X0302054Y0231349D01*
X0302204Y0231400D01*
X0302355Y0231447D01*
X0302507Y0231490D01*
X0302660Y0231529D01*
X0302815Y0231565D01*
X0302970Y0231596D01*
X0303126Y0231624D01*
X0303282Y0231648D01*
X0303439Y0231668D01*
X0303597Y0231684D01*
X0303754Y0231696D01*
X0303913Y0231704D01*
X0304071Y0231708D01*
X0304229Y0231708D01*
X0304387Y0231704D01*
X0304546Y0231696D01*
X0304703Y0231684D01*
X0304861Y0231668D01*
X0305018Y0231648D01*
X0305174Y0231624D01*
X0305330Y0231596D01*
X0305485Y0231565D01*
X0305640Y0231529D01*
X0305793Y0231490D01*
X0305945Y0231447D01*
X0306096Y0231400D01*
X0306246Y0231349D01*
X0306395Y0231294D01*
X0306542Y0231236D01*
X0306688Y0231174D01*
X0306832Y0231109D01*
X0306974Y0231039D01*
X0307115Y0230967D01*
X0307254Y0230890D01*
X0307390Y0230811D01*
X0307525Y0230727D01*
X0307658Y0230641D01*
X0307788Y0230551D01*
X0307916Y0230458D01*
X0308042Y0230362D01*
X0308165Y0230262D01*
X0308286Y0230160D01*
X0308404Y0230055D01*
X0308519Y0229946D01*
X0308632Y0229835D01*
X0308742Y0229721D01*
X0308849Y0229604D01*
X0308953Y0229485D01*
X0309054Y0229363D01*
X0309151Y0229238D01*
X0309246Y0229111D01*
X0309337Y0228982D01*
X0309426Y0228851D01*
X0309510Y0228717D01*
X0309592Y0228581D01*
X0309670Y0228444D01*
X0309744Y0228304D01*
X0309815Y0228162D01*
X0309883Y0228019D01*
X0309947Y0227874D01*
X0310007Y0227728D01*
X0310063Y0227580D01*
X0310116Y0227431D01*
X0310165Y0227280D01*
X0310210Y0227128D01*
X0310251Y0226975D01*
X0310289Y0226822D01*
X0310322Y0226667D01*
X0310352Y0226511D01*
X0310378Y0226355D01*
X0310399Y0226198D01*
X0310417Y0226041D01*
X0310431Y0225883D01*
X0310441Y0225725D01*
X0310447Y0225567D01*
X0310449Y0225409D01*
X0310447Y0225251D01*
X0310441Y0225093D01*
X0310431Y0224935D01*
X0310417Y0224777D01*
X0310399Y0224620D01*
X0310378Y0224463D01*
X0310352Y0224307D01*
X0310322Y0224151D01*
X0310289Y0223996D01*
X0310251Y0223843D01*
X0310210Y0223690D01*
X0310165Y0223538D01*
X0310116Y0223387D01*
X0310063Y0223238D01*
X0310007Y0223090D01*
X0309947Y0222944D01*
X0309883Y0222799D01*
X0309815Y0222656D01*
X0309744Y0222514D01*
X0309670Y0222374D01*
X0309592Y0222237D01*
X0309510Y0222101D01*
X0309426Y0221967D01*
X0309337Y0221836D01*
X0309246Y0221707D01*
X0309151Y0221580D01*
X0309054Y0221455D01*
X0308953Y0221333D01*
X0308849Y0221214D01*
X0308742Y0221097D01*
X0308632Y0220983D01*
X0308519Y0220872D01*
X0308404Y0220763D01*
X0308286Y0220658D01*
X0308165Y0220556D01*
X0308042Y0220456D01*
X0307916Y0220360D01*
X0307788Y0220267D01*
X0307658Y0220177D01*
X0307525Y0220091D01*
X0307390Y0220007D01*
X0307254Y0219928D01*
X0307115Y0219851D01*
X0306974Y0219779D01*
X0306832Y0219709D01*
X0306688Y0219644D01*
X0306542Y0219582D01*
X0306395Y0219524D01*
X0306246Y0219469D01*
X0306096Y0219418D01*
X0305945Y0219371D01*
X0305793Y0219328D01*
X0305640Y0219289D01*
X0305485Y0219253D01*
X0305330Y0219222D01*
X0305174Y0219194D01*
X0305018Y0219170D01*
X0304861Y0219150D01*
X0304703Y0219134D01*
X0304546Y0219122D01*
X0304387Y0219114D01*
X0304229Y0219110D01*
X0304071Y0219110D01*
X0303913Y0219114D01*
X0303754Y0219122D01*
X0303597Y0219134D01*
X0303439Y0219150D01*
X0303282Y0219170D01*
X0303126Y0219194D01*
X0302970Y0219222D01*
X0302815Y0219253D01*
X0302660Y0219289D01*
X0302507Y0219328D01*
X0302355Y0219371D01*
X0302204Y0219418D01*
X0302054Y0219469D01*
X0301905Y0219524D01*
X0301758Y0219582D01*
X0301612Y0219644D01*
X0301468Y0219709D01*
X0301326Y0219779D01*
X0301185Y0219851D01*
X0301046Y0219928D01*
X0300910Y0220007D01*
X0300775Y0220091D01*
X0300642Y0220177D01*
X0300512Y0220267D01*
X0300384Y0220360D01*
X0300258Y0220456D01*
X0300135Y0220556D01*
X0300014Y0220658D01*
X0299896Y0220763D01*
X0299781Y0220872D01*
X0299668Y0220983D01*
X0299558Y0221097D01*
X0299451Y0221214D01*
X0299347Y0221333D01*
X0299246Y0221455D01*
X0299149Y0221580D01*
X0299054Y0221707D01*
X0298963Y0221836D01*
X0298874Y0221967D01*
X0298790Y0222101D01*
X0298708Y0222237D01*
X0298630Y0222374D01*
X0298556Y0222514D01*
X0298485Y0222656D01*
X0298417Y0222799D01*
X0298353Y0222944D01*
X0298293Y0223090D01*
X0298237Y0223238D01*
X0298184Y0223387D01*
X0298135Y0223538D01*
X0298090Y0223690D01*
X0298049Y0223843D01*
X0298011Y0223996D01*
X0297978Y0224151D01*
X0297948Y0224307D01*
X0297922Y0224463D01*
X0297901Y0224620D01*
X0297883Y0224777D01*
X0297869Y0224935D01*
X0297859Y0225093D01*
X0297853Y0225251D01*
X0297851Y0225409D01*
X0297851Y0012811D02*
X0297853Y0012969D01*
X0297859Y0013127D01*
X0297869Y0013285D01*
X0297883Y0013443D01*
X0297901Y0013600D01*
X0297922Y0013757D01*
X0297948Y0013913D01*
X0297978Y0014069D01*
X0298011Y0014224D01*
X0298049Y0014377D01*
X0298090Y0014530D01*
X0298135Y0014682D01*
X0298184Y0014833D01*
X0298237Y0014982D01*
X0298293Y0015130D01*
X0298353Y0015276D01*
X0298417Y0015421D01*
X0298485Y0015564D01*
X0298556Y0015706D01*
X0298630Y0015846D01*
X0298708Y0015983D01*
X0298790Y0016119D01*
X0298874Y0016253D01*
X0298963Y0016384D01*
X0299054Y0016513D01*
X0299149Y0016640D01*
X0299246Y0016765D01*
X0299347Y0016887D01*
X0299451Y0017006D01*
X0299558Y0017123D01*
X0299668Y0017237D01*
X0299781Y0017348D01*
X0299896Y0017457D01*
X0300014Y0017562D01*
X0300135Y0017664D01*
X0300258Y0017764D01*
X0300384Y0017860D01*
X0300512Y0017953D01*
X0300642Y0018043D01*
X0300775Y0018129D01*
X0300910Y0018213D01*
X0301046Y0018292D01*
X0301185Y0018369D01*
X0301326Y0018441D01*
X0301468Y0018511D01*
X0301612Y0018576D01*
X0301758Y0018638D01*
X0301905Y0018696D01*
X0302054Y0018751D01*
X0302204Y0018802D01*
X0302355Y0018849D01*
X0302507Y0018892D01*
X0302660Y0018931D01*
X0302815Y0018967D01*
X0302970Y0018998D01*
X0303126Y0019026D01*
X0303282Y0019050D01*
X0303439Y0019070D01*
X0303597Y0019086D01*
X0303754Y0019098D01*
X0303913Y0019106D01*
X0304071Y0019110D01*
X0304229Y0019110D01*
X0304387Y0019106D01*
X0304546Y0019098D01*
X0304703Y0019086D01*
X0304861Y0019070D01*
X0305018Y0019050D01*
X0305174Y0019026D01*
X0305330Y0018998D01*
X0305485Y0018967D01*
X0305640Y0018931D01*
X0305793Y0018892D01*
X0305945Y0018849D01*
X0306096Y0018802D01*
X0306246Y0018751D01*
X0306395Y0018696D01*
X0306542Y0018638D01*
X0306688Y0018576D01*
X0306832Y0018511D01*
X0306974Y0018441D01*
X0307115Y0018369D01*
X0307254Y0018292D01*
X0307390Y0018213D01*
X0307525Y0018129D01*
X0307658Y0018043D01*
X0307788Y0017953D01*
X0307916Y0017860D01*
X0308042Y0017764D01*
X0308165Y0017664D01*
X0308286Y0017562D01*
X0308404Y0017457D01*
X0308519Y0017348D01*
X0308632Y0017237D01*
X0308742Y0017123D01*
X0308849Y0017006D01*
X0308953Y0016887D01*
X0309054Y0016765D01*
X0309151Y0016640D01*
X0309246Y0016513D01*
X0309337Y0016384D01*
X0309426Y0016253D01*
X0309510Y0016119D01*
X0309592Y0015983D01*
X0309670Y0015846D01*
X0309744Y0015706D01*
X0309815Y0015564D01*
X0309883Y0015421D01*
X0309947Y0015276D01*
X0310007Y0015130D01*
X0310063Y0014982D01*
X0310116Y0014833D01*
X0310165Y0014682D01*
X0310210Y0014530D01*
X0310251Y0014377D01*
X0310289Y0014224D01*
X0310322Y0014069D01*
X0310352Y0013913D01*
X0310378Y0013757D01*
X0310399Y0013600D01*
X0310417Y0013443D01*
X0310431Y0013285D01*
X0310441Y0013127D01*
X0310447Y0012969D01*
X0310449Y0012811D01*
X0310447Y0012653D01*
X0310441Y0012495D01*
X0310431Y0012337D01*
X0310417Y0012179D01*
X0310399Y0012022D01*
X0310378Y0011865D01*
X0310352Y0011709D01*
X0310322Y0011553D01*
X0310289Y0011398D01*
X0310251Y0011245D01*
X0310210Y0011092D01*
X0310165Y0010940D01*
X0310116Y0010789D01*
X0310063Y0010640D01*
X0310007Y0010492D01*
X0309947Y0010346D01*
X0309883Y0010201D01*
X0309815Y0010058D01*
X0309744Y0009916D01*
X0309670Y0009776D01*
X0309592Y0009639D01*
X0309510Y0009503D01*
X0309426Y0009369D01*
X0309337Y0009238D01*
X0309246Y0009109D01*
X0309151Y0008982D01*
X0309054Y0008857D01*
X0308953Y0008735D01*
X0308849Y0008616D01*
X0308742Y0008499D01*
X0308632Y0008385D01*
X0308519Y0008274D01*
X0308404Y0008165D01*
X0308286Y0008060D01*
X0308165Y0007958D01*
X0308042Y0007858D01*
X0307916Y0007762D01*
X0307788Y0007669D01*
X0307658Y0007579D01*
X0307525Y0007493D01*
X0307390Y0007409D01*
X0307254Y0007330D01*
X0307115Y0007253D01*
X0306974Y0007181D01*
X0306832Y0007111D01*
X0306688Y0007046D01*
X0306542Y0006984D01*
X0306395Y0006926D01*
X0306246Y0006871D01*
X0306096Y0006820D01*
X0305945Y0006773D01*
X0305793Y0006730D01*
X0305640Y0006691D01*
X0305485Y0006655D01*
X0305330Y0006624D01*
X0305174Y0006596D01*
X0305018Y0006572D01*
X0304861Y0006552D01*
X0304703Y0006536D01*
X0304546Y0006524D01*
X0304387Y0006516D01*
X0304229Y0006512D01*
X0304071Y0006512D01*
X0303913Y0006516D01*
X0303754Y0006524D01*
X0303597Y0006536D01*
X0303439Y0006552D01*
X0303282Y0006572D01*
X0303126Y0006596D01*
X0302970Y0006624D01*
X0302815Y0006655D01*
X0302660Y0006691D01*
X0302507Y0006730D01*
X0302355Y0006773D01*
X0302204Y0006820D01*
X0302054Y0006871D01*
X0301905Y0006926D01*
X0301758Y0006984D01*
X0301612Y0007046D01*
X0301468Y0007111D01*
X0301326Y0007181D01*
X0301185Y0007253D01*
X0301046Y0007330D01*
X0300910Y0007409D01*
X0300775Y0007493D01*
X0300642Y0007579D01*
X0300512Y0007669D01*
X0300384Y0007762D01*
X0300258Y0007858D01*
X0300135Y0007958D01*
X0300014Y0008060D01*
X0299896Y0008165D01*
X0299781Y0008274D01*
X0299668Y0008385D01*
X0299558Y0008499D01*
X0299451Y0008616D01*
X0299347Y0008735D01*
X0299246Y0008857D01*
X0299149Y0008982D01*
X0299054Y0009109D01*
X0298963Y0009238D01*
X0298874Y0009369D01*
X0298790Y0009503D01*
X0298708Y0009639D01*
X0298630Y0009776D01*
X0298556Y0009916D01*
X0298485Y0010058D01*
X0298417Y0010201D01*
X0298353Y0010346D01*
X0298293Y0010492D01*
X0298237Y0010640D01*
X0298184Y0010789D01*
X0298135Y0010940D01*
X0298090Y0011092D01*
X0298049Y0011245D01*
X0298011Y0011398D01*
X0297978Y0011553D01*
X0297948Y0011709D01*
X0297922Y0011865D01*
X0297901Y0012022D01*
X0297883Y0012179D01*
X0297869Y0012337D01*
X0297859Y0012495D01*
X0297853Y0012653D01*
X0297851Y0012811D01*
D11*
X0246000Y0078047D03*
X0246000Y0083953D03*
X0236000Y0083953D03*
X0236000Y0078047D03*
X0236000Y0178047D03*
X0236000Y0183953D03*
X0246000Y0183953D03*
X0246000Y0178047D03*
D12*
X0236000Y0166598D03*
X0236000Y0155402D03*
X0236000Y0066598D03*
X0236000Y0055402D03*
M02*
