%
M48
M72
T01C0.03200
T02C0.04000
T03C0.04724
T04C0.12598
%
T01
X96000Y36000
X96000Y46000
X96000Y56000
X96000Y66000
X96000Y76000
X96000Y86000
X96000Y96000
X96000Y106000
X126000Y106000
X126000Y96000
X126000Y86000
X126000Y76000
X126000Y66000
X126000Y56000
X126000Y46000
X126000Y36000
X126000Y131000
X126000Y141000
X126000Y151000
X126000Y161000
X126000Y171000
X126000Y181000
X126000Y191000
X126000Y201000
X96000Y201000
X96000Y191000
X96000Y181000
X96000Y171000
X96000Y161000
X96000Y151000
X96000Y141000
X96000Y131000
T02
X76000Y131000
X76000Y141000
X76000Y151000
X76000Y161000
X76000Y171000
X76000Y181000
X76000Y191000
X76000Y201000
X71000Y221000
X81000Y221000
X146000Y201000
X156000Y201000
X166000Y201000
X166000Y191000
X156000Y191000
X146000Y191000
X146000Y181000
X156000Y181000
X166000Y181000
X166000Y171000
X156000Y171000
X146000Y171000
X146000Y161000
X156000Y161000
X166000Y161000
X166000Y151000
X156000Y151000
X146000Y151000
X146000Y141000
X156000Y141000
X166000Y141000
X166000Y131000
X156000Y131000
X146000Y131000
X146000Y106000
X156000Y106000
X166000Y106000
X166000Y96000
X156000Y96000
X146000Y96000
X146000Y86000
X156000Y86000
X166000Y86000
X166000Y76000
X156000Y76000
X146000Y76000
X146000Y66000
X156000Y66000
X166000Y66000
X166000Y56000
X156000Y56000
X146000Y56000
X146000Y46000
X156000Y46000
X166000Y46000
X166000Y36000
X156000Y36000
X146000Y36000
X191000Y36000
X201000Y36000
X211000Y36000
X211000Y46000
X201000Y46000
X191000Y46000
X191000Y56000
X201000Y56000
X211000Y56000
X211000Y66000
X201000Y66000
X191000Y66000
X191000Y76000
X201000Y76000
X211000Y76000
X211000Y86000
X201000Y86000
X191000Y86000
X191000Y96000
X201000Y96000
X211000Y96000
X211000Y106000
X201000Y106000
X191000Y106000
X191000Y131000
X201000Y131000
X211000Y131000
X211000Y141000
X201000Y141000
X191000Y141000
X191000Y151000
X201000Y151000
X211000Y151000
X211000Y161000
X201000Y161000
X191000Y161000
X191000Y171000
X201000Y171000
X211000Y171000
X211000Y181000
X201000Y181000
X191000Y181000
X191000Y191000
X201000Y191000
X211000Y191000
X211000Y201000
X201000Y201000
X191000Y201000
X236000Y136000
X246000Y136000
X246000Y36000
X236000Y36000
X81000Y16000
X71000Y16000
X76000Y36000
X76000Y46000
X76000Y56000
X76000Y66000
X76000Y76000
X76000Y86000
X76000Y96000
X76000Y106000
T03
X40843Y105449
X40843Y95606
X40843Y85764
X40843Y75921
X40843Y66079
X40843Y56236
X40843Y46394
X40843Y36551
X21157Y36551
X21157Y46394
X21157Y56236
X21157Y66079
X21157Y75921
X21157Y85764
X21157Y95606
X21157Y105449
X21157Y131551
X21157Y141394
X21157Y151236
X21157Y161079
X21157Y170921
X21157Y180764
X21157Y190606
X21157Y200449
X40843Y200449
X40843Y190606
X40843Y180764
X40843Y170921
X40843Y161079
X40843Y151236
X40843Y141394
X40843Y131551
X276157Y136236
X276157Y146079
X276157Y155921
X276157Y165764
X295843Y165764
X295843Y155921
X295843Y146079
X295843Y136236
X295843Y100921
X295843Y91079
X276157Y91079
X276157Y100921
X276157Y65764
X276157Y55921
X276157Y46079
X276157Y36236
X295843Y36236
X295843Y46079
X295843Y55921
X295843Y65764
X295843Y191079
X295843Y200921
X276157Y200921
X276157Y191079
T04
X12811Y12811
X12811Y225409
X304150Y225409
X304150Y12811
M30
